<svg width="1600" height="1200" viewBox="0 0 1600 1200" fill="none" xmlns="http://www.w3.org/2000/svg">
  <rect width="1600" height="1200" fill="url(#paint0_linear_3_2)"/>
  <circle cx="1257" cy="232" r="122" fill="#FFF2BD" fill-opacity="0.88"/>
  <path d="M0 551C142 493 287 486 430 519C591 557 739 645 898 663C1055 681 1182 620 1307 580C1404 548 1499 537 1600 548V1200H0V551Z" fill="url(#paint1_linear_3_2)"/>
  <rect x="174" y="595" width="832" height="349" rx="42" fill="#F7F0E3"/>
  <rect x="230" y="652" width="304" height="234" rx="24" fill="#E6D6BF"/>
  <rect x="560" y="652" width="391" height="234" rx="24" fill="#EFE3D0"/>
  <rect x="252" y="681" width="260" height="28" rx="14" fill="#2A4D36" fill-opacity="0.12"/>
  <rect x="252" y="726" width="260" height="28" rx="14" fill="#2A4D36" fill-opacity="0.12"/>
  <rect x="252" y="771" width="260" height="28" rx="14" fill="#2A4D36" fill-opacity="0.12"/>
  <rect x="252" y="816" width="260" height="28" rx="14" fill="#2A4D36" fill-opacity="0.12"/>
  <path d="M624 832C624 737 701 660 796 660H887C932 660 968 696 968 741V832H624Z" fill="#CDA166"/>
  <rect x="701" y="725" width="124" height="145" rx="18" fill="#F8F0E1"/>
  <path d="M1072 629C1120 557 1188 520 1274 518C1289 603 1266 671 1206 725C1118 726 1074 698 1072 629Z" fill="#163C25"/>
  <path d="M1145 748C1094 673 1115 597 1208 520C1281 552 1322 608 1328 688C1282 760 1221 780 1145 748Z" fill="#2A5C38"/>
  <rect x="1096" y="781" width="278" height="129" rx="28" fill="#FBF5E8"/>
  <path d="M1192 872C1201 829 1234 798 1293 778C1318 827 1316 873 1287 916C1238 907 1206 892 1192 872Z" fill="#87B547"/>
  <path d="M1276 870C1287 819 1327 784 1395 764C1417 818 1411 869 1376 917C1318 909 1285 893 1276 870Z" fill="#5A833C"/>
  <path d="M1367 878C1372 834 1402 803 1455 785C1478 828 1479 875 1458 928C1409 923 1379 906 1367 878Z" fill="#2E5C39"/>
  <path d="M-10 925C149 866 321 868 482 928C621 980 730 1062 879 1091C1062 1126 1221 1076 1372 1025C1457 997 1533 981 1600 987V1200H-10V925Z" fill="#A3C95D"/>
  <path d="M-6 1014C149 963 295 965 432 1007C577 1052 690 1122 830 1154C1001 1194 1154 1165 1295 1123C1393 1094 1495 1065 1600 1065V1200H-6V1014Z" fill="#2D5C39"/>
  <defs>
    <linearGradient id="paint0_linear_3_2" x1="800" y1="0" x2="800" y2="1200" gradientUnits="userSpaceOnUse">
      <stop stop-color="#1B3929"/>
      <stop offset="0.42" stop-color="#607851"/>
      <stop offset="1" stop-color="#F2E6D1"/>
    </linearGradient>
    <linearGradient id="paint1_linear_3_2" x1="800" y1="504" x2="800" y2="1200" gradientUnits="userSpaceOnUse">
      <stop stop-color="#7C9B59"/>
      <stop offset="1" stop-color="#5C7A44"/>
    </linearGradient>
  </defs>
</svg>
