<svg width="512" height="512" viewBox="0 0 96 96" fill="none" xmlns="http://www.w3.org/2000/svg">
  <rect x="10" y="10" width="76" height="76" rx="22" fill="#1C6C2B" />
  <path d="M16 62C24.4 56.8 35 54.2 47.9 54.2C61.2 54.2 72 56.8 80 62V66.6C70.6 69.4 60 70.8 48.2 70.8C36.4 70.8 25.7 69.4 16 66.5V62Z" fill="#F39C12" />
  <path d="M16 67.2C24.1 63.7 34.2 62 46.4 62C58.7 62 69 63.8 77.3 67.2C70.2 73.6 60.8 76.8 49.1 76.8C36.6 76.8 25.6 73.6 16 67.2Z" fill="#7DBA32" />
  <path d="M30.5 69.4C36.2 67.5 42.2 66.6 48.4 66.6C58 66.6 66 68.6 72.6 72.8C66.7 77.6 59.4 80 50.6 80C41.8 80 35.1 76.4 30.5 69.4Z" fill="#D7EE49" />
  <path d="M22.6 28H34.6L40.4 47.2L45.2 28H52.2L56.8 47.2L62.8 28H73.4L63.4 60H54L48.6 40.6L43.2 60H33.9L22.6 28Z" fill="#FFF8EE" />
  <path d="M49.2 22.4C56 25.8 59.4 31.4 59.4 39.2C59.4 45 56.5 49.6 50.8 53C45 49.6 42.1 45 42.1 39.2C42.1 31.4 44.5 25.8 49.2 22.4Z" fill="#D7F24C" />
  <path d="M39.5 30.4C45 31.4 48.8 35 50.9 41.2C49.9 46.8 46.5 50.5 40.8 52.4C35.9 48.3 33.9 43.7 33.9 38.7C33.9 35 35.8 32.3 39.5 30.4Z" fill="#5CB737" />
  <path d="M47.8 31.5V56.2" stroke="#1B5A1F" stroke-linecap="round" stroke-width="1.8" />
  <path d="M47.7 39.4C45.4 37.5 43.6 35.2 42.4 32.4" stroke="#1B5A1F" stroke-linecap="round" stroke-width="1.1" />
</svg>
